<?xml version="1.0" standalone="no"?>
<!DOCTYPE svg PUBLIC "-//W3C//DTD SVG 20010904//EN"
 "http://www.w3.org/TR/2001/REC-SVG-20010904/DTD/svg10.dtd">
<svg version="1.0" xmlns="http://www.w3.org/2000/svg"
 width="1024.000000pt" height="1024.000000pt" viewBox="0 0 1024.000000 1024.000000"
 preserveAspectRatio="xMidYMid meet">

<g transform="translate(0.000000,1024.000000) scale(0.100000,-0.100000)"
fill="#000000" stroke="none">
<path d="M2877 8840 c-4 -14 -6 -45 -6 -70 1 -44 2 -43 10 15 9 64 7 96 -4 55z"/>
<path d="M2811 8713 c-10 -26 -10 -27 4 -9 8 11 15 23 15 28 0 15 -7 8 -19
-19z"/>
<path d="M2634 8573 c-171 -196 -443 -467 -542 -544 l-34 -26 -4 -149 c-4
-172 -32 -350 -69 -443 -30 -77 -31 -102 -7 -125 10 -9 72 -48 137 -87 65 -39
151 -98 191 -132 39 -34 135 -111 214 -172 222 -172 220 -170 220 -219 0 -49
-46 -127 -100 -172 -19 -15 -72 -61 -117 -102 -88 -78 -103 -105 -96 -175 2
-22 -1 -36 -6 -32 -5 3 -13 1 -16 -5 -4 -6 -3 -10 2 -9 30 5 43 -3 43 -27 0
-19 4 -25 15 -20 8 3 15 2 15 -3 0 -14 99 7 118 26 10 10 19 31 20 47 1 17 6
32 11 36 6 3 9 30 7 60 -2 46 2 59 22 82 13 14 24 29 23 32 -5 27 1 69 7 58 6
-9 12 -5 22 13 7 14 16 25 20 25 4 0 45 -19 91 -41 46 -23 123 -58 171 -79 48
-21 114 -54 145 -73 63 -38 120 -57 170 -57 17 0 35 -4 38 -10 3 -5 3 -10 -2
-10 -15 -1 -248 -29 -318 -39 -38 -6 -126 -21 -195 -35 -69 -13 -182 -32 -252
-41 -70 -9 -166 -22 -215 -30 -120 -20 -120 -20 -121 13 0 15 5 33 12 41 9 12
8 13 -4 6 -8 -5 -19 -10 -25 -11 -30 -5 -145 -68 -135 -74 9 -5 9 -9 1 -14 -6
-4 -11 -11 -11 -15 0 -9 68 -54 170 -112 94 -52 275 -193 357 -277 34 -34 64
-58 68 -53 3 6 18 8 33 5 19 -4 58 6 117 29 99 39 188 68 280 92 130 33 139
38 171 86 30 46 43 88 85 279 31 144 35 175 19 165 -9 -5 -10 -2 -5 14 7 24
-21 56 -98 108 -54 37 -60 61 -22 98 28 29 46 30 152 10 107 -20 120 -20 125
8 2 13 -2 29 -9 36 -7 7 -10 17 -7 23 4 6 3 8 -3 5 -6 -4 -36 36 -69 91 -85
143 -196 304 -283 412 -87 107 -111 140 -111 153 0 5 8 3 17 -4 12 -10 15 -11
9 -1 -17 29 128 4 152 -26 6 -9 12 -42 12 -75 0 -36 4 -56 10 -52 11 7 40 -18
40 -34 0 -5 6 -14 14 -18 8 -4 16 -15 18 -23 2 -8 16 -23 31 -33 15 -9 30 -24
33 -32 4 -8 14 -15 23 -15 10 0 25 -15 34 -35 19 -40 21 -49 9 -41 -5 3 -5
-20 -1 -51 4 -32 3 -66 -2 -81 -9 -23 -8 -24 7 -11 15 12 16 11 9 -20 -5 -23
-4 -31 4 -27 7 4 11 -1 11 -12 0 -11 6 -22 13 -25 10 -4 13 2 9 19 -3 19 0 24
17 24 11 0 21 5 21 10 0 6 5 10 10 10 6 0 10 -6 10 -14 0 -23 28 -27 35 -5 4
11 9 18 11 16 3 -3 -6 -33 -20 -67 l-25 -62 35 27 c29 23 40 26 58 17 35 -15
27 -88 -18 -178 -19 -39 -38 -83 -42 -98 -3 -14 -17 -36 -30 -48 -14 -13 -24
-35 -24 -51 0 -15 -18 -63 -40 -107 -22 -44 -40 -91 -40 -105 0 -14 -4 -25 -9
-25 -11 0 -32 -56 -24 -64 3 -3 -7 -34 -22 -68 -15 -35 -33 -76 -40 -93 -23
-57 -77 -220 -85 -261 -11 -52 -71 -237 -121 -376 -21 -59 -39 -113 -39 -121
0 -8 -23 -79 -51 -158 -76 -214 -129 -372 -129 -388 0 -8 -7 -22 -16 -32 -11
-13 -14 -27 -9 -46 7 -29 5 -27 294 -303 107 -102 211 -203 230 -224 20 -21
65 -63 100 -92 53 -44 67 -51 79 -41 13 10 14 9 4 -9 -12 -24 -10 -28 43 -73
22 -19 56 -54 76 -78 19 -24 76 -80 125 -124 49 -45 159 -150 244 -233 85 -84
180 -171 210 -193 30 -23 98 -83 151 -135 52 -51 79 -79 60 -63 l-36 30 34
-37 c19 -21 37 -35 41 -33 4 3 32 -21 62 -53 30 -31 59 -59 64 -61 5 -2 23
-17 39 -34 17 -16 23 -26 15 -21 -13 7 -13 5 1 -16 8 -13 23 -24 33 -26 10 -1
28 -11 40 -22 11 -11 36 -34 55 -51 36 -33 61 -40 61 -16 0 8 -4 15 -8 15 -4
0 -8 10 -9 22 -1 12 17 -12 40 -54 53 -96 118 -174 139 -165 13 4 154 256 181
321 4 10 22 40 41 65 18 25 57 91 86 146 68 127 171 285 187 285 15 0 63 57
63 75 0 17 36 30 73 26 15 -1 27 2 27 7 0 5 14 12 30 16 18 3 30 12 30 21 0 8
9 15 20 15 11 0 20 5 20 10 0 6 11 10 25 10 19 0 25 5 26 23 0 12 3 16 6 10 5
-15 43 -18 43 -4 0 5 19 12 42 16 23 4 52 18 65 31 13 13 28 24 34 24 12 0 29
44 29 75 0 18 7 25 29 30 16 3 46 21 65 40 20 18 50 36 68 40 18 4 48 13 67
22 19 8 51 18 71 20 41 6 44 15 17 53 -9 13 -17 33 -17 43 0 29 -40 56 -83 57
-21 0 -63 9 -95 20 -72 26 -100 19 -132 -28 -14 -20 -65 -81 -115 -136 -49
-54 -89 -103 -87 -108 1 -5 -1 -7 -6 -4 -5 3 -46 -33 -92 -79 -45 -47 -86 -82
-91 -80 -4 3 -10 1 -14 -5 -3 -5 -15 -10 -25 -10 -15 0 -20 10 -25 54 -8 61
-4 71 58 146 31 38 42 59 37 69 -12 25 -50 156 -50 174 0 30 -37 37 -197 38
-87 1 -196 4 -243 7 l-84 7 100 90 c93 83 99 91 82 103 -26 19 -23 37 15 79
19 21 40 48 49 61 8 12 56 65 106 117 70 73 98 95 125 100 42 8 74 -7 80 -37
4 -19 4 -18 6 5 0 16 17 56 38 90 29 49 48 69 94 96 31 18 73 50 93 70 l36 37
-60 12 c-58 12 -62 12 -93 -11 -75 -56 -146 -87 -228 -102 -46 -8 -102 -21
-124 -30 -22 -8 -29 -13 -15 -10 129 29 158 35 179 35 20 0 22 -3 16 -27 -3
-16 -16 -45 -28 -65 -30 -51 -175 -208 -277 -300 -177 -159 -262 -233 -272
-237 -7 -2 -8 74 -3 242 l7 246 -43 11 c-24 7 -90 27 -147 46 -56 19 -111 34
-121 34 -38 0 -376 91 -390 105 -13 12 -17 9 -32 -25 -10 -22 -24 -40 -32 -40
-8 0 -51 31 -95 69 -69 60 -82 68 -97 57 -33 -24 -40 -134 -15 -206 5 -14 14
-126 20 -250 15 -304 13 -294 66 -332 25 -17 62 -56 84 -85 47 -62 80 -69 124
-28 21 19 26 33 26 69 0 39 4 48 33 69 40 29 181 93 224 102 28 6 31 4 26 -14
-3 -12 -9 -21 -14 -21 -5 0 -9 -22 -9 -49 0 -46 2 -49 30 -54 42 -9 37 -28 -7
-28 -52 1 -212 -15 -244 -24 -30 -7 -35 -23 -45 -134 l-6 -67 59 -75 c33 -41
71 -82 85 -91 14 -9 31 -30 37 -46 12 -29 11 -32 -28 -67 -22 -20 -43 -45 -46
-56 -4 -10 -10 -19 -14 -19 -5 0 -26 28 -49 62 -22 35 -101 123 -175 195 -163
159 -196 199 -243 289 -34 66 -35 71 -28 139 4 38 7 190 6 337 0 225 -3 275
-18 322 -16 50 -16 65 -5 138 8 53 22 97 37 120 29 46 29 49 3 117 -15 40 -16
51 -6 42 13 -10 16 -1 21 61 4 40 14 143 22 228 8 85 18 215 22 288 5 73 13
137 18 142 13 13 161 33 190 26 29 -8 44 -53 51 -156 5 -75 5 -75 -49 -185
-30 -60 -64 -135 -77 -165 -13 -30 -54 -112 -92 -182 -69 -127 -83 -162 -54
-138 31 26 86 -18 87 -70 1 -27 4 -31 22 -25 81 26 169 45 214 45 29 0 99 6
155 14 193 28 292 37 429 40 76 1 141 6 145 9 7 8 -8 10 -47 8 -16 -1 -30 6
-38 19 -7 11 -57 123 -112 248 -54 125 -119 274 -145 332 -25 58 -69 140 -97
182 l-50 78 54 92 c30 51 74 128 98 170 24 43 46 76 48 73 3 -2 0 -10 -5 -17
-20 -26 -73 -130 -73 -144 0 -8 -4 -14 -10 -14 -5 0 -10 -6 -10 -14 0 -8 -6
-21 -13 -28 -7 -7 -23 -30 -35 -51 -20 -34 -20 -38 -5 -44 9 -4 19 -1 21 5 2
7 17 12 33 12 22 0 32 6 38 23 5 13 25 37 45 55 24 20 36 40 36 57 0 20 5 25
26 25 14 0 23 4 19 10 -3 6 -2 10 2 10 12 0 53 85 53 109 0 29 44 118 56 114
6 -2 11 10 11 27 0 31 -5 34 -44 30 -13 -1 -23 4 -23 12 0 12 -23 -19 -81
-109 -36 -56 -32 -36 7 35 115 210 159 285 172 289 22 9 35 -11 133 -197 51
-96 115 -210 142 -253 42 -66 53 -78 71 -72 12 3 36 8 54 12 17 3 32 10 32 16
0 5 -20 44 -43 86 -24 42 -75 137 -112 211 -37 74 -78 151 -90 170 -33 55 -24
67 51 75 36 4 83 5 104 2 25 -3 43 0 50 8 8 10 -9 16 -77 29 -49 10 -110 27
-138 38 -27 11 -58 21 -67 21 -24 2 -23 6 15 53 44 56 469 475 475 469 3 -2
18 16 33 40 16 25 34 45 41 45 7 0 22 13 32 29 11 16 32 36 47 45 14 8 32 29
39 45 11 27 160 154 197 168 13 5 15 -2 11 -49 -4 -48 -2 -54 15 -54 15 1 32
-33 91 -179 188 -467 240 -594 263 -639 14 -27 54 -117 89 -199 35 -83 67
-153 70 -156 4 -3 3 31 -1 75 -7 78 -6 82 17 98 12 9 61 28 108 42 353 105
445 137 577 200 l83 39 -7 35 c-13 79 -67 241 -114 344 -28 61 -53 117 -56
125 -5 11 0 13 20 9 19 -4 35 2 55 18 15 13 34 24 43 24 9 0 24 11 32 23 l15
24 -88 -22 c-49 -11 -92 -24 -96 -28 -4 -4 -19 -7 -33 -7 -17 0 -22 -3 -13 -8
9 -7 7 -13 -9 -28 -29 -25 -175 -205 -224 -274 -52 -74 -53 -75 -48 -46 3 14
10 26 15 26 5 0 6 5 2 12 -4 7 -3 8 4 4 7 -4 14 3 18 19 3 13 10 23 14 20 12
-7 23 44 21 90 -2 23 -11 49 -22 61 -10 11 -19 26 -19 32 0 23 -40 12 -175
-48 -164 -72 -232 -106 -264 -131 l-24 -19 -25 57 c-13 32 -48 121 -78 198
-30 77 -67 169 -83 205 -16 36 -43 96 -60 133 l-31 69 23 6 c18 5 15 7 -18 14
-22 5 -61 11 -87 14 l-46 6 -224 -219 c-340 -334 -483 -477 -605 -604 l-112
-117 -53 57 c-92 97 -648 640 -781 764 -85 78 -134 117 -149 117 -28 0 -93
-22 -96 -33 -1 -4 -15 -34 -32 -66 -16 -33 -48 -106 -71 -163 -43 -110 -170
-410 -176 -417 -5 -7 -102 34 -238 100 -185 90 -345 143 -470 157 -60 7 -60 7
-71 47 -55 192 -92 299 -139 401 -30 65 -55 113 -55 107 0 -7 -7 -13 -16 -13
-19 0 -227 -129 -356 -222 -91 -65 -117 -94 -85 -95 14 -1 80 -11 118 -19 14
-3 36 -16 47 -29 17 -20 18 -24 5 -29 -30 -12 -253 58 -253 79 0 1 32 66 70
144 39 78 88 183 109 234 42 101 62 146 129 287 24 52 61 136 82 185 21 50 48
115 61 145 18 40 23 69 21 108 -2 28 -7 52 -11 52 -4 0 -34 -30 -67 -67z
m1792 -1325 c522 -511 584 -573 584 -592 0 -10 -6 -16 -12 -13 -7 2 -26 -2
-43 -8 -16 -7 -69 -20 -117 -30 -48 -10 -85 -22 -82 -27 3 -5 12 -7 20 -4 8 3
14 1 14 -4 0 -6 10 -10 23 -10 12 0 30 -7 40 -15 11 -7 26 -11 35 -8 34 10 67
28 79 43 7 8 13 12 13 7 0 -6 -161 -313 -309 -590 -14 -27 -30 -49 -36 -49 -5
0 -50 78 -99 173 -49 96 -115 216 -147 267 -47 75 -61 107 -69 158 -6 35 -33
164 -60 286 -27 123 -56 268 -65 323 -19 122 -38 190 -76 274 -21 46 -28 74
-24 93 4 15 10 28 14 28 4 0 147 -136 317 -302z m-2056 50 c0 -5 7 -8 16 -8 8
0 12 -4 9 -10 -3 -5 -1 -20 6 -32 18 -37 -4 -9 -55 67 -41 61 -42 65 -12 30
20 -22 36 -43 36 -47z m70 -109 c15 -28 5 -23 -15 7 -9 15 -12 23 -6 20 6 -4
16 -16 21 -27z m60 -94 c14 -19 14 -19 -2 -6 -10 7 -18 18 -18 24 0 6 1 8 3 6
1 -2 9 -13 17 -24z m90 -125 c30 -43 18 -37 -16 7 -15 20 -23 33 -16 29 6 -3
21 -20 32 -36z m50 -70 c12 -16 19 -30 16 -30 -2 0 -14 14 -26 30 -12 17 -19
30 -16 30 2 0 14 -13 26 -30z m113 -149 c30 -28 34 -41 13 -41 -13 0 -51 51
-75 100 -10 21 -8 21 11 -5 13 -16 35 -41 51 -54z m38 42 c-8 -15 -10 -15 -11
-2 0 17 10 32 18 25 2 -3 -1 -13 -7 -23z m847 -64 c-6 -16 -12 -28 -14 -26 -5
5 13 57 20 57 3 0 0 -14 -6 -31z m-18 -49 c0 -5 -5 -10 -11 -10 -5 0 -7 5 -4
10 3 6 8 10 11 10 2 0 4 -4 4 -10z m1373 -65 c-3 -9 -8 -14 -10 -11 -3 3 -2 9
2 15 9 16 15 13 8 -4z m1667 -94 c0 -6 -4 -13 -10 -16 -5 -3 -10 1 -10 9 0 9
5 16 10 16 6 0 10 -4 10 -9z m-2470 -71 c-14 -4 -34 -8 -45 -8 -16 0 -15 2 5
8 14 4 34 8 45 8 16 0 15 -2 -5 -8z m-113 -26 c-3 -3 -12 -4 -19 -1 -8 3 -5 6
6 6 11 1 17 -2 13 -5z m-40 -10 c-3 -3 -12 -4 -19 -1 -8 3 -5 6 6 6 11 1 17
-2 13 -5z m-87 -25 c-30 -11 -59 -18 -65 -16 -5 2 13 11 40 19 72 23 90 20 25
-3z m-131 -43 c-8 -6 -99 -35 -99 -30 0 7 64 32 84 33 11 1 17 -1 15 -3z m31
-881 c0 -5 -5 -3 -10 5 -5 8 -10 20 -10 25 0 6 5 3 10 -5 5 -8 10 -19 10 -25z
m88 -200 c-3 -3 -9 2 -12 12 -6 14 -5 15 5 6 7 -7 10 -15 7 -18z m32 -63 c0
-15 -2 -15 -10 -2 -13 20 -13 33 0 25 6 -3 10 -14 10 -23z m31 -68 c5 -15 8
-29 5 -31 -2 -2 -8 10 -14 26 -13 38 -5 41 9 5z m23 -60 c3 -8 2 -12 -4 -9 -6
3 -10 10 -10 16 0 14 7 11 14 -7z m423 -911 c-3 -10 -5 -2 -5 17 0 19 2 27 5
18 2 -10 2 -26 0 -35z m10 -65 c-3 -7 -5 -2 -5 12 0 14 2 19 5 13 2 -7 2 -19
0 -25z m495 -205 c25 -30 33 -47 17 -38 -8 5 -5 -2 5 -14 19 -21 19 -21 1 -15
-13 5 -16 4 -11 -4 5 -9 -14 -12 -73 -12 -44 0 -83 5 -86 10 -4 7 2 9 18 5 31
-8 92 25 93 51 2 41 11 45 36 17z m618 -517 c0 -2 -8 -10 -17 -17 -16 -13 -17
-12 -4 4 13 16 21 21 21 13z m114 -148 c-3 -12 -12 -27 -18 -34 -7 -6 -23 -32
-36 -58 -14 -25 -28 -46 -32 -46 -3 0 14 36 39 80 45 81 60 99 47 58z"/>
<path d="M4694 6571 c3 -5 15 -7 26 -4 28 7 25 13 -6 13 -14 0 -23 -4 -20 -9z"/>
<path d="M4648 6563 c6 -2 18 -2 25 0 6 3 1 5 -13 5 -14 0 -19 -2 -12 -5z"/>
<path d="M4608 6553 c7 -3 16 -2 19 1 4 3 -2 6 -13 5 -11 0 -14 -3 -6 -6z"/>
<path d="M7806 7697 c3 -10 9 -15 12 -12 3 3 0 11 -7 18 -10 9 -11 8 -5 -6z"/>
<path d="M7820 7665 c0 -5 5 -17 10 -25 5 -8 10 -10 10 -5 0 6 -5 17 -10 25
-5 8 -10 11 -10 5z"/>
<path d="M6253 7553 c9 -2 23 -2 30 0 6 3 -1 5 -18 5 -16 0 -22 -2 -12 -5z"/>
<path d="M7890 7511 c0 -6 4 -13 10 -16 6 -3 7 1 4 9 -7 18 -14 21 -14 7z"/>
<path d="M7880 7440 c-30 -10 -71 -23 -90 -28 -31 -10 -29 -10 20 -6 30 3 68
10 83 16 45 17 44 1 -3 -46 -23 -25 -59 -69 -79 -100 -52 -79 -236 -332 -285
-391 -50 -60 -80 -103 -90 -129 -9 -26 39 11 196 152 79 71 125 119 121 127
-2 8 11 31 31 51 19 20 38 44 41 54 3 9 17 22 30 28 14 6 25 16 25 22 0 5 8
10 19 10 10 0 24 6 30 14 7 8 28 17 49 21 20 4 49 13 65 22 16 8 31 12 34 9 3
-3 18 2 32 12 27 19 63 36 95 46 15 5 -5 21 -84 68 -118 69 -154 77 -240 48z"/>
<path d="M7715 7390 c-3 -5 1 -10 9 -10 9 0 16 5 16 10 0 6 -4 10 -9 10 -6 0
-13 -4 -16 -10z"/>
<path d="M7583 7372 c-84 -14 -120 -30 -75 -33 79 -6 145 -2 154 9 6 6 20 12
32 13 11 0 15 3 8 6 -6 2 -10 9 -6 14 6 11 4 11 -113 -9z"/>
<path d="M7490 7319 c0 -5 5 -7 10 -4 6 3 10 8 10 11 0 2 -4 4 -10 4 -5 0 -10
-5 -10 -11z"/>
<path d="M6031 7214 c0 -11 3 -14 6 -6 3 7 2 16 -1 19 -3 4 -6 -2 -5 -13z"/>
<path d="M7400 6603 c-8 -3 -33 -13 -56 -23 -22 -10 -115 -49 -205 -85 -174
-71 -299 -133 -336 -168 -27 -25 -29 -58 -6 -94 10 -15 18 -48 19 -77 1 -29
13 -77 27 -111 14 -33 37 -100 53 -150 15 -49 31 -96 37 -103 5 -7 35 -19 66
-28 107 -30 236 -76 353 -125 72 -30 132 -49 155 -49 36 1 37 2 18 15 -85 59
-124 93 -129 109 -2 10 -9 16 -14 12 -5 -3 -9 1 -9 9 0 8 6 15 13 15 7 0 14 5
16 11 2 5 19 12 38 15 19 3 49 19 68 35 18 16 41 29 52 29 10 0 22 5 25 11 4
6 13 8 21 5 8 -3 14 -2 14 2 0 8 61 37 97 47 13 3 30 13 38 22 9 8 39 21 68
29 34 9 60 23 74 41 20 25 29 28 82 28 33 0 63 3 67 8 4 4 17 7 28 7 52 1 -17
19 -129 34 -109 15 -290 43 -735 112 -85 13 -202 31 -260 40 -111 17 -141 24
-125 29 139 41 214 68 210 75 -3 4 3 6 12 4 10 -3 27 2 38 11 l20 15 -20 -6
c-18 -5 -18 -4 -2 6 9 6 22 8 29 4 6 -4 8 -3 5 3 -3 5 13 20 36 33 152 83 277
172 277 196 0 15 -5 16 -30 7z m-145 -773 c10 -11 16 -20 13 -20 -3 0 -13 9
-23 20 -10 11 -16 20 -13 20 3 0 13 -9 23 -20z"/>
<path d="M5568 6553 c6 -2 18 -2 25 0 6 3 1 5 -13 5 -14 0 -19 -2 -12 -5z"/>
<path d="M5870 6483 c0 -5 -9 -19 -20 -31 -42 -45 -232 -381 -244 -432 -5 -21
-3 -20 8 5 8 17 24 39 35 49 12 11 21 25 21 31 0 16 56 25 70 11 13 -13 19 -5
22 26 2 21 7 25 36 26 18 1 45 11 59 22 14 11 40 20 57 20 17 1 42 7 56 15 14
8 35 14 46 15 13 0 24 8 27 20 3 11 10 20 17 20 7 0 14 -9 17 -20 5 -20 23
-28 23 -10 0 6 14 10 30 10 17 0 30 5 30 11 0 5 -6 7 -12 4 -7 -4 -4 1 6 9 15
12 46 16 135 17 64 0 107 4 97 8 -17 6 -17 8 -4 14 9 3 27 4 40 1 32 -6 -70
29 -172 60 -47 14 -137 40 -200 59 -144 43 -180 51 -180 40z"/>
<path d="M6585 6250 c-10 -11 -22 -17 -27 -14 -4 3 -7 0 -6 -8 2 -7 -5 -12
-14 -12 -10 1 -18 -2 -18 -6 0 -4 -10 -10 -22 -12 -13 -3 -84 -21 -158 -41
-74 -20 -148 -39 -165 -42 -35 -7 -45 -10 -65 -18 -21 -9 -436 -118 -482 -127
-24 -5 -39 -3 -43 4 -3 6 -3 -12 -2 -41 3 -42 12 -61 50 -112 25 -34 55 -86
66 -117 12 -31 45 -97 74 -147 50 -87 176 -337 203 -402 67 -160 113 -233 136
-219 4 3 8 -4 8 -15 0 -16 8 -20 43 -23 45 -3 49 -12 34 -68 -13 -45 65 119
149 315 76 179 111 259 148 338 20 43 49 116 66 162 30 87 57 145 65 145 3 0
-4 -19 -16 -41 l-21 -42 62 7 c45 5 66 4 77 -6 14 -12 16 -1 11 105 -6 125
-16 156 -43 121 -14 -18 -15 -17 -6 8 6 15 16 36 23 47 10 17 10 27 -1 53 -7
18 -26 69 -42 113 -15 44 -32 81 -38 83 -6 2 -9 7 -6 12 11 18 -24 17 -40 0z
m19 -217 c-108 -236 -329 -746 -409 -945 -24 -59 -47 -114 -52 -123 -15 -25
-92 538 -93 672 0 59 -2 63 -30 78 -16 9 -30 19 -30 24 0 9 139 57 153 53 5
-2 18 9 29 23 11 14 24 22 30 19 7 -4 8 -2 4 4 -4 6 11 27 34 48 25 23 40 45
40 60 0 13 4 24 10 24 5 0 17 8 27 19 10 10 59 30 109 45 50 14 100 29 110 33
11 4 4 -7 -16 -26 -28 -27 -26 -26 15 6 51 41 84 62 97 63 4 0 -9 -35 -28 -77z"/>
<path d="M6355 5894 l-30 -26 33 22 c17 12 32 23 32 26 0 7 -4 5 -35 -22z"/>
<path d="M4710 5775 c0 -8 2 -15 4 -15 2 0 6 7 10 15 3 8 1 15 -4 15 -6 0 -10
-7 -10 -15z"/>
<path d="M6743 5605 c0 -27 2 -38 4 -22 2 15 2 37 0 50 -2 12 -4 0 -4 -28z"/>
<path d="M4081 4944 c0 -11 3 -14 6 -6 3 7 2 16 -1 19 -3 4 -6 -2 -5 -13z"/>
<path d="M5201 4916 c2 -2 36 -6 74 -9 41 -3 60 -2 45 3 -25 8 -127 13 -119 6z"/>
<path d="M5368 4893 c6 -2 18 -2 25 0 6 3 1 5 -13 5 -14 0 -19 -2 -12 -5z"/>
<path d="M5418 4883 c6 -2 18 -2 25 0 6 3 1 5 -13 5 -14 0 -19 -2 -12 -5z"/>
<path d="M5468 4873 c6 -2 18 -2 25 0 6 3 1 5 -13 5 -14 0 -19 -2 -12 -5z"/>
<path d="M5518 4863 c6 -2 18 -2 25 0 6 3 1 5 -13 5 -14 0 -19 -2 -12 -5z"/>
<path d="M5578 4853 c7 -3 16 -2 19 1 4 3 -2 6 -13 5 -11 0 -14 -3 -6 -6z"/>
<path d="M5628 4843 c6 -2 18 -2 25 0 6 3 1 5 -13 5 -14 0 -19 -2 -12 -5z"/>
<path d="M5725 4824 c28 -7 55 -13 60 -13 17 2 -69 27 -90 27 -11 0 3 -6 30
-14z"/>
<path d="M5935 4771 c34 -15 91 -24 80 -13 -5 5 -30 13 -55 16 -29 4 -38 3
-25 -3z"/>
<path d="M6190 4743 c0 -42 61 -246 119 -398 21 -55 60 -158 86 -228 27 -70
56 -137 67 -149 17 -20 22 -38 19 -67 -2 -8 2 -10 10 -5 8 5 11 2 7 -7 -6 -17
32 -22 100 -13 33 4 42 9 42 25 0 12 7 19 20 19 13 0 20 7 20 20 0 13 7 20 20
20 13 0 20 7 20 20 0 13 7 20 20 20 13 0 20 7 20 20 0 17 7 20 40 20 29 0 40
4 40 15 0 10 10 15 29 15 41 0 91 20 91 36 0 8 5 14 11 14 5 0 7 -4 4 -10 -3
-5 -1 -10 4 -10 6 0 11 5 11 10 0 6 11 10 25 10 16 0 23 5 19 13 -4 12 43 47
81 58 11 3 19 11 17 18 -1 7 2 10 7 7 5 -3 33 12 63 34 74 56 107 122 75 148
-24 20 -238 95 -607 212 -107 34 -257 87 -332 116 -76 30 -140 54 -143 54 -3
0 -5 -17 -5 -37z"/>
<path d="M5378 4443 c7 -3 16 -2 19 1 4 3 -2 6 -13 5 -11 0 -14 -3 -6 -6z"/>
<path d="M5310 4430 c-20 -6 -21 -8 -5 -8 11 0 29 3 40 8 25 11 -1 11 -35 0z"/>
<path d="M6516 3810 c4 -14 13 -36 21 -50 l14 -25 -7 25 c-4 14 -13 36 -21 50
l-14 25 7 -25z"/>
<path d="M5587 3063 c-4 -3 -7 -11 -7 -17 0 -6 5 -5 12 2 6 6 9 14 7 17 -3 3
-9 2 -12 -2z"/>
<path d="M4936 2422 c-3 -6 -1 -14 5 -17 15 -10 25 3 12 16 -7 7 -13 7 -17 1z"/>
<path d="M4803 1620 c0 -36 2 -50 4 -32 2 17 2 47 0 65 -2 17 -4 3 -4 -33z"/>
<path d="M5480 1640 c-11 -11 -20 -30 -20 -43 0 -32 42 -70 72 -65 32 4 28 22
-6 28 -52 9 -64 74 -14 70 37 -3 41 -1 28 15 -17 20 -36 19 -60 -5z"/>
<path d="M5846 1644 c-35 -35 -7 -114 40 -114 19 0 26 6 31 30 3 17 12 30 19
30 26 0 15 39 -16 55 -37 19 -55 19 -74 -1z m54 -34 c0 -5 -5 -10 -11 -10 -5
0 -7 5 -4 10 3 6 8 10 11 10 2 0 4 -4 4 -10z"/>
<path d="M5100 1590 c0 -23 4 -30 20 -30 20 0 20 1 5 30 -9 17 -18 30 -20 30
-3 0 -5 -13 -5 -30z"/>
</g>
</svg>
